<svg width="200" height="48" viewBox="0 0 200 48" fill="none" xmlns="http://www.w3.org/2000/svg">
<path d="M0.00126641 37.7851V9.14978H14.3183C17.6977 9.14978 20.1875 10.0393 21.7879 11.817C23.3882 13.5961 24.1891 15.982 24.1891 18.9762C24.1891 20.9035 23.6999 22.5925 22.7217 24.0446C21.7435 25.4967 20.4093 26.5788 18.7202 27.2909C19.1346 27.6178 19.4678 27.9802 19.7212 28.3806C19.9721 28.7811 20.2471 29.336 20.5436 30.0482L23.923 37.7851H16.4534L13.2514 30.4929C12.984 29.8708 12.6432 29.4184 12.2288 29.1371C11.8132 28.8558 11.2202 28.7152 10.4498 28.7152H7.15915V37.7864H0L0.00126641 37.7851ZM7.16042 23.2007H12.4519C13.8444 23.2007 14.9341 22.8523 15.7197 22.1554C16.5053 21.4597 16.8981 20.3991 16.8981 18.9762C16.8981 16.1011 15.5195 14.663 12.7636 14.663H7.16168V23.1995L7.16042 23.2007Z" fill="white"/>
<path d="M38.4618 38.2299C34.7859 38.2299 31.8361 37.3188 29.6136 35.4955C27.3898 33.6721 26.2786 30.9238 26.2786 27.2479C26.2786 23.8989 27.1972 21.2304 29.0358 19.2448C30.8731 17.2593 33.6303 16.2659 37.3062 16.2659C40.6552 16.2659 43.2489 17.1262 45.0875 18.8444C46.9248 20.5639 47.8447 22.8764 47.8447 25.7806V29.5603H32.9043C33.2299 30.9542 33.994 31.9248 35.1939 32.4722C36.3939 33.0208 38.0322 33.2945 40.1078 33.2945C41.2634 33.2945 42.4418 33.1906 43.643 32.9828C44.8429 32.7763 45.8439 32.5089 46.6448 32.182V36.8513C45.6361 37.3264 44.4362 37.6736 43.0436 37.8966C41.6498 38.1184 40.1242 38.2299 38.4643 38.2299H38.4618ZM32.9043 25.4245H41.6194V24.4907C41.6194 23.4529 41.3077 22.6305 40.6856 22.0223C40.0634 21.4154 39.0104 21.1113 37.5292 21.1113C35.8097 21.1113 34.6098 21.4597 33.9281 22.1566C33.2464 22.8536 32.9055 23.9433 32.9055 25.4245H32.9043Z" fill="white"/>
<path d="M59.0941 38.2299C57.4051 38.2299 55.8034 38.1108 54.2918 37.8738C52.7801 37.6369 51.5789 37.3404 50.6907 36.9843V31.5155C51.7284 31.9602 52.9284 32.3011 54.2918 32.5381C55.6552 32.7763 56.8703 32.8941 57.9372 32.8941C59.2119 32.8941 60.1382 32.8346 60.716 32.7167C61.2938 32.5989 61.5827 32.272 61.5827 31.7385C61.5827 31.1455 61.1075 30.7007 60.1597 30.4042C59.2107 30.1077 57.9068 29.6782 56.2469 29.1143C54.3197 28.4326 52.8599 27.6407 51.8678 26.736C50.8744 25.8325 50.3777 24.4907 50.3777 22.7116C50.3777 20.6374 51.1557 19.0434 52.7117 17.9321C54.2677 16.8209 56.75 16.2646 60.1597 16.2646C61.494 16.2646 62.8118 16.3685 64.1169 16.5763C65.4208 16.7841 66.4877 17.0211 67.3189 17.2884V22.6686C66.4889 22.2834 65.5399 22.0021 64.473 21.8234C63.4061 21.646 62.4418 21.556 61.5827 21.556C60.4854 21.556 59.5591 21.6232 58.8039 21.7562C58.0475 21.8893 57.6699 22.2086 57.6699 22.7116C57.6699 23.2755 58.0842 23.667 58.9154 23.8901C59.7454 24.1131 60.9453 24.4755 62.5166 24.9798C64.1765 25.4841 65.4664 26.0251 66.385 26.6029C67.3037 27.1807 67.9563 27.87 68.3415 28.6708C68.7267 29.4717 68.9193 30.479 68.9193 31.6942C68.9193 33.7988 68.0893 35.4144 66.4294 36.5408C64.7695 37.6673 62.324 38.2299 59.0928 38.2299H59.0941Z" fill="white"/>
<path d="M72.566 37.7852V7.81685H79.7251V18.2654C80.5259 17.6724 81.5181 17.1909 82.7041 16.8209C83.8888 16.4509 85.1648 16.2646 86.5282 16.2646C89.3437 16.2646 91.4116 16.9311 92.7307 18.2654C94.0498 19.5997 94.7099 21.6448 94.7099 24.402V37.7852H87.5508V24.8911C87.5508 23.6759 87.2986 22.8168 86.7943 22.3125C86.29 21.8095 85.3865 21.5573 84.0814 21.5573C83.3098 21.5573 82.5254 21.7347 81.7246 22.0908C80.9238 22.4469 80.2573 22.8916 79.7238 23.4251V37.7864H72.5647L72.566 37.7852Z" fill="white"/>
<path d="M104.935 38.2299C103.601 38.2299 102.363 37.9917 101.223 37.519C100.081 37.0451 99.1701 36.3115 98.4884 35.3181C97.8067 34.3259 97.4658 33.088 97.4658 31.6055C97.4658 29.4425 98.1995 27.7446 99.6668 26.5142C101.134 25.2839 103.335 24.6693 106.27 24.6693H112.139V24.1802C112.139 23.1133 111.783 22.3505 111.072 21.8906C110.361 21.4319 109.027 21.2012 107.07 21.2012C104.669 21.2012 102.313 21.5725 100.001 22.3125V17.6888C101.039 17.2745 102.306 16.9324 103.803 16.6663C105.299 16.4002 106.878 16.2659 108.538 16.2659C111.798 16.2659 114.355 16.9324 116.208 18.2666C118.06 19.6009 118.986 21.7208 118.986 24.625V37.7864H112.717L112.361 36.0074C111.589 36.7182 110.604 37.2682 109.403 37.6521C108.202 38.036 106.713 38.2299 104.934 38.2299H104.935ZM107.202 33.828C108.329 33.828 109.307 33.6354 110.137 33.2502C110.967 32.865 111.633 32.3759 112.138 31.7828V28.8039H107.069C104.965 28.8039 103.912 29.649 103.912 31.3381C103.912 32.1098 104.179 32.7167 104.712 33.1615C105.246 33.6062 106.076 33.828 107.202 33.828Z" fill="white"/>
<path d="M123.298 47.3898V16.7094H129.524L129.88 18.5327C130.739 17.8219 131.703 17.2656 132.77 16.8652C133.837 16.4648 135.082 16.2646 136.505 16.2646C139.5 16.2646 141.87 17.073 143.62 18.6873C145.369 20.3029 146.243 23.0081 146.243 26.8019C146.243 30.5956 145.346 33.4124 143.553 35.3396C141.759 37.2669 139.292 38.2299 136.149 38.2299C133.926 38.2299 132.029 37.7712 130.457 36.8513V47.3898H123.298ZM134.326 32.9841C137.409 32.9841 138.951 30.8794 138.951 26.6701C138.951 24.6541 138.595 23.2907 137.884 22.5799C137.173 21.869 136.031 21.513 134.46 21.513C132.889 21.513 131.614 22.0464 130.459 23.1133V31.6511C131.021 32.0667 131.593 32.3923 132.171 32.6293C132.748 32.8675 133.467 32.9853 134.327 32.9853L134.326 32.9841Z" fill="white"/>
<path d="M161.181 38.2299C157.505 38.2299 154.555 37.3188 152.333 35.4955C150.11 33.6721 148.998 30.9238 148.998 27.2479C148.998 23.8989 149.916 21.2304 151.755 19.2448C153.592 17.2593 156.35 16.2659 160.025 16.2659C163.374 16.2659 165.968 17.1262 167.807 18.8444C169.644 20.5639 170.564 22.8764 170.564 25.7806V29.5603H155.624C155.949 30.9542 156.713 31.9248 157.913 32.4722C159.113 33.0208 160.751 33.2945 162.827 33.2945C163.983 33.2945 165.161 33.1906 166.362 32.9828C167.562 32.7763 168.563 32.5089 169.364 32.182V36.8513C168.355 37.3264 167.155 37.6736 165.763 37.8966C164.369 38.1184 162.842 38.2299 161.184 38.2299H161.181ZM155.624 25.4245H164.339V24.4907C164.339 23.4529 164.027 22.6305 163.405 22.0223C162.783 21.4154 161.73 21.1113 160.247 21.1113C158.528 21.1113 157.328 21.4597 156.646 22.1566C155.964 22.8536 155.624 23.9433 155.624 25.4245Z" fill="white"/>
<path d="M184.907 16.9298L179.278 9.15108H170.741L180.844 23.1716C182.21 21.2494 183.573 19.1726 184.907 16.9298Z" fill="white"/>
<path d="M188.596 33.9306L191.373 37.7851H200L192.883 27.9499C191.484 30.0963 190.033 32.0958 188.596 33.9306Z" fill="white"/>
<path d="M195.233 19.4171C186.733 36.0935 171.619 47.424 171.619 47.424H158.072C158.072 47.424 176.874 38.2641 190.312 12.6014L187.812 9.18525L199.241 0L197.794 22.941L195.233 19.4171Z" fill="#73B400"/>
</svg>
